<?xml version="1.0" encoding="UTF-8" standalone="no"?>
<!-- Created with Inkscape (http://www.inkscape.org/) -->
<svg
   xmlns:svg="http://www.w3.org/2000/svg"
   xmlns="http://www.w3.org/2000/svg"
   xmlns:xlink="http://www.w3.org/1999/xlink"
   version="1.0"
   width="500"
   height="213.69"
   id="svg2">
  <defs
     id="defs4">
    <clipPath
       id="clipPath5186">
      <path
         d="M 871.644,271.41 L 1194.3,271.41 L 1194.3,766.266 L 871.644,766.266 L 871.644,271.41 z"
         id="path5188" />
    </clipPath>
    <clipPath
       id="clipPath5136">
      <path
         d="M 12.495,871.395 L 1220.059,871.395 L 1220.059,12.498 L 12.495,12.498 L 12.495,871.395 z"
         id="path5138" />
    </clipPath>
    <clipPath
       id="clipPath5122">
      <path
         d="M 12.495,871.395 L 1220.059,871.395 L 1220.059,12.498 L 12.495,12.498 L 12.495,871.395 z"
         id="path5124" />
    </clipPath>
    <clipPath
       id="clipPath5080">
      <path
         d="M 12.495,871.395 L 1220.059,871.395 L 1220.059,12.498 L 12.495,12.498 L 12.495,871.395 z"
         id="path5082" />
    </clipPath>
    <clipPath
       id="clipPath4998">
      <path
         d="M 113.664,263.048 L 116.625,272.391 L 140.025,269.52 L 137.064,260.178 L 113.664,263.048 z"
         id="path5000" />
    </clipPath>
    <clipPath
       id="clipPath4650">
      <path
         d="M 707.296,230.091 L 608.728,301.452 L 609.988,313.386 L 709.05,243.78 L 707.296,230.091 z"
         id="path4652" />
    </clipPath>
    <clipPath
       id="clipPath4544">
      <path
         d="M 350.59,256.712 L 354.73,269.78 L 371.946,267.675 L 367.798,254.607 L 350.59,256.712 z"
         id="path4546" />
    </clipPath>
    <clipPath
       id="clipPath4460">
      <path
         d="M 424.83,181.418 L 428.97,194.487 L 446.187,192.372 L 442.038,179.304 L 424.83,181.418 z"
         id="path4462" />
    </clipPath>
    <clipPath
       id="clipPath4448">
      <path
         d="M 594.814,466.322 L 600.312,483.648 L 612.804,482.109 L 607.306,464.784 L 594.814,466.322 z"
         id="path4450" />
    </clipPath>
    <clipPath
       id="clipPath4436">
      <path
         d="M 471.198,469.796 L 476.698,487.122 L 489.198,485.592 L 483.708,468.266 L 471.198,469.796 z"
         id="path4438" />
    </clipPath>
    <linearGradient
       x1="0"
       y1="0"
       x2="1"
       y2="0"
       id="linearGradient4294"
       gradientUnits="userSpaceOnUse"
       gradientTransform="translate(1104.2309,4604.3363)"
       spreadMethod="pad">
      <stop
         id="stop4296"
         style="stop-color:#b2b4b6;stop-opacity:1"
         offset="0" />
      <stop
         id="stop4298"
         style="stop-color:#8a8c8e;stop-opacity:1"
         offset="1" />
    </linearGradient>
    <clipPath
       id="clipPath4290">
      <path
         d="M -19.2971,-24.9845 L 20.4375,-24.9845 L 20.4375,24.7276 L -19.2971,24.7276 L -19.2971,-24.9845 z"
         id="path4292" />
    </clipPath>
    <clipPath
       id="clipPath4280">
      <path
         d="M 1084.933,4579.333 L 1124.668,4579.333 L 1124.668,4629.045 L 1084.933,4629.045 L 1084.933,4579.333 z"
         id="path4282" />
    </clipPath>
    <clipPath
       id="clipPath4272">
      <path
         d="M 351.904,522.518 L 348.258,521.942 L 290.082,625.632 L 292.926,626.991 L 351.904,522.518 z"
         id="path4274" />
    </clipPath>
    <clipPath
       id="clipPath4264">
      <path
         d="M 248.848,595.239 L 333.221,660.199 L 393.143,553.691 L 308.77,488.731"
         id="path4266" />
    </clipPath>
    <clipPath
       id="clipPath4112">
      <path
         d="M 130.35,166.55 L 141.924,210.38 L 170.094,208.302 L 163.678,164.048 L 130.35,166.55 z"
         id="path4114" />
    </clipPath>
    <clipPath
       id="clipPath4040">
      <path
         d="M 12.495,871.395 L 1220.059,871.395 L 1220.059,12.498 L 12.495,12.498 L 12.495,871.395 z"
         id="path4042" />
    </clipPath>
    <linearGradient
       x1="0"
       y1="0"
       x2="1"
       y2="0"
       id="linearGradient3788"
       gradientUnits="userSpaceOnUse"
       gradientTransform="matrix(92.5,0,0,-92.5,367.6875,77.889648)"
       spreadMethod="pad">
      <stop
         id="stop3790"
         style="stop-color:#535456;stop-opacity:1"
         offset="0" />
      <stop
         id="stop3792"
         style="stop-color:#646668;stop-opacity:1"
         offset="1" />
    </linearGradient>
    <clipPath
       id="clipPath3784">
      <path
         d="M 0.00273132,-0.676147 L 0.997314,-0.676147 L 0.997314,-0.454361 L 0.00273132,-0.454361 L 0.00273132,-0.676147 z"
         id="path3786" />
    </clipPath>
    <clipPath
       id="clipPath3774">
      <path
         d="M 367.941,140.433 L 459.939,140.433 L 459.939,119.918 L 367.941,119.918 L 367.941,140.433 z"
         id="path3776" />
    </clipPath>
    <clipPath
       id="clipPath3766">
      <path
         d="M 404.67,119.912 C 381.462,119.912 370.212,129.411 367.932,131.605 L 367.932,131.611 C 370.226,129.464 381.612,120.067 405.363,120.074 C 408.09,120.074 410.979,120.192 414.03,120.47 C 416.813,120.718 419.444,121.053 421.93,121.46 C 419.652,121.078 417.244,120.744 414.706,120.47 C 411.142,120.084 407.794,119.912 404.67,119.912 M 428.969,122.883 C 449.468,127.87 457.973,137.78 459.93,140.427 L 459.93,140.332 C 458.085,137.565 450.337,127.992 428.969,122.883"
         id="path3768" />
    </clipPath>
    <clipPath
       id="clipPath3614">
      <path
         d="M 12.495,871.395 L 1220.059,871.395 L 1220.059,12.498 L 12.495,12.498 L 12.495,871.395 z"
         id="path3616" />
    </clipPath>
    <clipPath
       id="clipPath3590">
      <path
         d="M 12.495,871.395 L 1220.059,871.395 L 1220.059,12.498 L 12.495,12.498 L 12.495,871.395 z"
         id="path3592" />
    </clipPath>
    <clipPath
       id="clipPath3550">
      <path
         d="M 12.495,871.395 L 1220.059,871.395 L 1220.059,12.498 L 12.495,12.498 L 12.495,871.395 z"
         id="path3552" />
    </clipPath>
    <clipPath
       id="clipPath3526">
      <path
         d="M 12.495,871.395 L 1220.059,871.395 L 1220.059,12.498 L 12.495,12.498 L 12.495,871.395 z"
         id="path3528" />
    </clipPath>
    <clipPath
       id="clipPath3430">
      <path
         d="M 12.495,871.395 L 1220.059,871.395 L 1220.059,12.498 L 12.495,12.498 L 12.495,871.395 z"
         id="path3432" />
    </clipPath>
    <clipPath
       id="clipPath3390">
      <path
         d="M 12.495,871.395 L 1220.059,871.395 L 1220.059,12.498 L 12.495,12.498 L 12.495,871.395 z"
         id="path3392" />
    </clipPath>
    <clipPath
       id="clipPath3350">
      <path
         d="M 12.495,871.395 L 1220.059,871.395 L 1220.059,12.498 L 12.495,12.498 L 12.495,871.395 z"
         id="path3352" />
    </clipPath>
    <clipPath
       id="clipPath3190">
      <path
         d="M 12.495,871.395 L 1220.059,871.395 L 1220.059,12.498 L 12.495,12.498 L 12.495,871.395 z"
         id="path3192" />
    </clipPath>
    <linearGradient
       x1="0"
       y1="0"
       x2="1"
       y2="0"
       id="linearGradient3138"
       gradientUnits="userSpaceOnUse"
       gradientTransform="matrix(92.5,0,0,-92.5,367.6875,77.889648)"
       spreadMethod="pad">
      <stop
         id="stop3140"
         style="stop-color:#8a8c8e;stop-opacity:1"
         offset="0" />
      <stop
         id="stop3142"
         style="stop-color:#b2b4b6;stop-opacity:1"
         offset="1" />
    </linearGradient>
    <clipPath
       id="clipPath3134">
      <path
         d="M 0.00273132,-0.67511 L 0.997314,-0.67511 L 0.997314,0.681671 L 0.00273132,0.681671 L 0.00273132,-0.67511 z"
         id="path3136" />
    </clipPath>
    <clipPath
       id="clipPath3124">
      <path
         d="M 367.941,140.338 L 459.939,140.338 L 459.939,14.835 L 367.941,14.835 L 367.941,140.338 z"
         id="path3126" />
    </clipPath>
    <clipPath
       id="clipPath3116">
      <path
         d="M 367.68,14.55 L 460.182,23.55 L 460.182,141.216 C 460.182,141.216 449.508,123.882 414.012,120.714 C 381.018,117.771 367.68,132.216 367.68,132.216 L 367.68,14.55"
         id="path3118" />
    </clipPath>
    <clipPath
       id="clipPath3108">
      <path
         d="M 367.932,14.829 L 367.932,131.605 C 370.212,129.411 381.462,119.912 404.67,119.912 C 407.794,119.912 411.142,120.084 414.706,120.47 C 417.244,120.744 419.652,121.078 421.93,121.46 C 424.421,121.867 426.763,122.346 428.969,122.883 C 450.337,127.992 458.085,137.565 459.93,140.332 L 459.93,23.78 L 367.932,14.829"
         id="path3110" />
    </clipPath>
    <clipPath
       id="clipPath2926">
      <path
         d="M 330.96,685.77 L 492.844,685.77 L 492.844,827.907 L 330.96,827.907 L 330.96,685.77 z"
         id="path2928" />
    </clipPath>
    <clipPath
       id="clipPath2910">
      <path
         d="M 491.259,448.592 L 496.416,464.856 L 514.974,462.579 L 509.818,446.316 L 491.259,448.592 z"
         id="path2912" />
    </clipPath>
    <clipPath
       id="clipPath2894">
      <path
         d="M 287.032,194.784 L 292.116,210.804 L 312.501,208.302 L 307.416,192.282 L 287.032,194.784 z"
         id="path2896" />
    </clipPath>
    <clipPath
       id="clipPath2878">
      <path
         d="M 582.852,570.912 L 588.046,587.264 L 606.55,584.988 L 601.366,568.634 L 582.852,570.912 z"
         id="path2880" />
    </clipPath>
    <clipPath
       id="clipPath2862">
      <path
         d="M 590.034,235.634 L 594.454,249.584 L 616.728,246.849 L 612.309,232.899 L 590.034,235.634 z"
         id="path2864" />
    </clipPath>
    <clipPath
       id="clipPath2846">
      <path
         d="M 604.182,245.364 L 608.376,258.584 L 630.804,255.831 L 626.61,242.61 L 604.182,245.364 z"
         id="path2848" />
    </clipPath>
    <clipPath
       id="clipPath2830">
      <path
         d="M 778.62,161.133 L 783.102,175.272 L 805.306,172.544 L 800.824,158.406 L 778.62,161.133 z"
         id="path2832" />
    </clipPath>
    <clipPath
       id="clipPath2814">
      <path
         d="M 324.696,152.304 L 329.746,168.234 L 350.31,165.704 L 345.262,149.774 L 324.696,152.304 z"
         id="path2816" />
    </clipPath>
    <clipPath
       id="clipPath2798">
      <path
         d="M 631.47,167.99 L 635.736,181.446 L 658.128,178.692 L 653.862,165.237 L 631.47,167.99 z"
         id="path2800" />
    </clipPath>
    <clipPath
       id="clipPath2786">
      <path
         d="M 498.298,491.576 L 502.815,505.824 L 513.508,504.518 L 508.989,490.263 L 498.298,491.576 z"
         id="path2788" />
    </clipPath>
    <clipPath
       id="clipPath2774">
      <path
         d="M 354.639,237.884 L 358.644,250.494 L 374.466,248.55 L 370.462,235.94 L 354.639,237.884 z"
         id="path2776" />
    </clipPath>
    <clipPath
       id="clipPath2762">
      <path
         d="M 381.73,179.708 L 385.626,191.994 L 401.97,189.987 L 398.074,177.702 L 381.73,179.708 z"
         id="path2764" />
    </clipPath>
    <clipPath
       id="clipPath2750">
      <path
         d="M 577.164,487.419 L 581.692,501.684 L 592.168,500.397 L 587.64,486.132 L 577.164,487.419 z"
         id="path2752" />
    </clipPath>
    <clipPath
       id="clipPath2738">
      <path
         d="M 179.346,408.092 L 183.369,420.782 L 199.048,418.856 L 195.024,406.166 L 179.346,408.092 z"
         id="path2740" />
    </clipPath>
    <clipPath
       id="clipPath2702">
      <path
         d="M 12.495,871.395 L 1220.059,871.395 L 1220.059,12.498 L 12.495,12.498 L 12.495,871.395 z"
         id="path2704" />
    </clipPath>
    <clipPath
       id="clipPath2642">
      <path
         d="M 12.495,871.395 L 1220.059,871.395 L 1220.059,12.498 L 12.495,12.498 L 12.495,871.395 z"
         id="path2644" />
    </clipPath>
    <clipPath
       id="clipPath2598">
      <path
         d="M 12.495,871.395 L 1220.059,871.395 L 1220.059,12.498 L 12.495,12.498 L 12.495,871.395 z"
         id="path2600" />
    </clipPath>
    <clipPath
       id="clipPath2586">
      <path
         d="M 144.291,211.496 L 169.456,290.823 L 191.712,288.096 L 166.548,208.77 L 144.291,211.496 z"
         id="path2588" />
    </clipPath>
    <clipPath
       id="clipPath2574">
      <path
         d="M 121.287,213.495 L 146.452,292.83 L 168.718,290.094 L 143.553,210.768 L 121.287,213.495 z"
         id="path2576" />
    </clipPath>
    <clipPath
       id="clipPath2562">
      <path
         d="M 416.352,383.028 L 440.022,457.647 L 460.992,455.072 L 437.322,380.454 L 416.352,383.028 z"
         id="path2564" />
    </clipPath>
    <clipPath
       id="clipPath2550">
      <path
         d="M 394.356,387.024 L 418.026,461.652 L 438.996,459.078 L 415.326,384.45 L 394.356,387.024 z"
         id="path2552" />
    </clipPath>
    <clipPath
       id="clipPath2538">
      <path
         d="M 544.162,204.261 L 589.224,346.326 L 653.61,338.424 L 608.548,196.35 L 544.162,204.261 z"
         id="path2540" />
    </clipPath>
    <clipPath
       id="clipPath2526">
      <path
         d="M 519.411,213.35 L 564.474,355.416 L 628.851,347.514 L 583.798,205.448 L 519.411,213.35 z"
         id="path2528" />
    </clipPath>
    <clipPath
       id="clipPath2514">
      <path
         d="M 365.799,220.614 L 405.418,345.506 L 520.509,331.376 L 480.9,206.474 L 365.799,220.614 z"
         id="path2516" />
    </clipPath>
    <clipPath
       id="clipPath2502">
      <path
         d="M 343.174,207.068 L 382.792,331.962 L 497.884,317.823 L 458.274,192.93 L 343.174,207.068 z"
         id="path2504" />
    </clipPath>
    <clipPath
       id="clipPath2490">
      <path
         d="M 563.844,644.954 L 599.853,758.48 L 735.178,741.867 L 699.16,628.34 L 563.844,644.954 z"
         id="path2492" />
    </clipPath>
    <clipPath
       id="clipPath2478">
      <path
         d="M 543.18,628.566 L 579.189,742.092 L 714.514,725.478 L 678.496,611.952 L 543.18,628.566 z"
         id="path2480" />
    </clipPath>
    <clipPath
       id="clipPath2466">
      <path
         d="M 498.117,635.64 L 537.412,759.516 L 654.574,745.124 L 615.28,621.258 L 498.117,635.64 z"
         id="path2468" />
    </clipPath>
    <clipPath
       id="clipPath2454">
      <path
         d="M 478.776,652.974 L 518.07,776.85 L 635.232,762.458 L 595.938,638.592 L 478.776,652.974 z"
         id="path2456" />
    </clipPath>
    <clipPath
       id="clipPath2442">
      <path
         d="M 449.571,401.27 L 451.272,406.635 L 592.78,389.264 L 591.078,383.901 L 449.571,401.27 z"
         id="path2444" />
    </clipPath>
    <clipPath
       id="clipPath2430">
      <path
         d="M 449.571,374.604 L 451.272,379.968 L 592.78,362.598 L 591.078,357.234 L 449.571,374.604 z"
         id="path2432" />
    </clipPath>
    <clipPath
       id="clipPath2418">
      <path
         d="M 0,883.89 L 1232.551,883.89 L 1232.551,0 L 0,0 L 0,883.89 z"
         id="path2420" />
    </clipPath>
    <linearGradient
       x1="0"
       y1="0"
       x2="1"
       y2="0"
       id="linearGradient10650"
       xlink:href="#linearGradient3138"
       gradientUnits="userSpaceOnUse"
       gradientTransform="matrix(92.5,0,0,-92.5,367.6875,77.889648)"
       spreadMethod="pad" />
    <linearGradient
       x1="0"
       y1="0"
       x2="1"
       y2="0"
       id="linearGradient10652"
       xlink:href="#linearGradient3788"
       gradientUnits="userSpaceOnUse"
       gradientTransform="matrix(92.5,0,0,-92.5,367.6875,77.889648)"
       spreadMethod="pad" />
    <linearGradient
       x1="0"
       y1="0"
       x2="1"
       y2="0"
       id="linearGradient10654"
       xlink:href="#linearGradient4294"
       gradientUnits="userSpaceOnUse"
       gradientTransform="translate(1104.2309,4604.3363)"
       spreadMethod="pad" />
  </defs>
  <g
     transform="translate(-4.5705376,21.44144)"
     id="layer1">
    <g
       transform="matrix(2.9577139,0,0,2.9577139,508.08887,-475.09811)"
       id="g12245">
      <g
         transform="matrix(1.25,0,0,-1.25,-4.5705357,192.48191)"
         id="g5090">
        <path
           d="M 0,0 L 0,14.288 L -56.163,14.288 L -56.163,28.576 L -79.978,4.763 L -27.634,4.763 L -32.399,0 L 0,0 z"
           id="path5092"
           style="fill:#00a650;fill-opacity:1;fill-rule:nonzero;stroke:none" />
      </g>
      <g
         transform="matrix(1.25,0,0,-1.25,-39.048036,186.52816)"
         id="g5094">
        <path
           d="M 0,0 L -102.248,0 L -102.248,-14.287 L -28.577,-14.287 L -28.577,-28.576 L 0,0 z"
           id="path5096"
           style="fill:#005aaa;fill-opacity:1;fill-rule:nonzero;stroke:none" />
      </g>
      <g
         transform="matrix(1.25,0,0,-1.25,-50.719286,186.52816)"
         id="g5098">
        <path
           d="M 0,0 L -2.381,0 L -3.92,-6.544 L -3.969,-6.544 L -5.46,0 L -7.986,0 L -5.292,-9.116 L -2.645,-9.116 L 0,0 z"
           id="path5100"
           style="fill:#ffffff;fill-opacity:1;fill-rule:nonzero;stroke:none" />
      </g>
      <g
         transform="matrix(1.25,0,0,-1.25,-62.505536,186.52816)"
         id="g5102">
        <path
           d="M 0,0 L -2.477,0 L -3.946,-6.544 L -4.017,-6.544 L -5.437,0 L -8.034,0 L -5.34,-9.116 L -2.694,-9.116 L 0,0 z"
           id="path5104"
           style="fill:#ffffff;fill-opacity:1;fill-rule:nonzero;stroke:none" />
      </g>
      <g
         transform="matrix(1.25,0,0,-1.25,-74.771786,186.52816)"
         id="g5106">
        <path
           d="M 0,0 L -2.117,0 L -2.117,-6.277 L -4.451,0 L -7.362,0 L -7.362,-9.116 L -5.196,-9.116 L -5.196,-2.839 L -5.149,-2.839 L -2.864,-9.116 L 0,-9.116 L 0,0 z"
           id="path5108"
           style="fill:#ffffff;fill-opacity:1;fill-rule:nonzero;stroke:none" />
      </g>
    </g>
  </g>
</svg>
